<?xml version="1.0" encoding="utf-8"?>
<!-- Generator: Adobe Illustrator 16.0.0, SVG Export Plug-In . SVG Version: 6.00 Build 0)  -->
<!DOCTYPE svg PUBLIC "-//W3C//DTD SVG 1.1//EN" "http://www.w3.org/Graphics/SVG/1.1/DTD/svg11.dtd" [
	<!ENTITY ns_flows "http://ns.adobe.com/Flows/1.0/">
	<!ENTITY ns_extend "http://ns.adobe.com/Extensibility/1.0/">
	<!ENTITY ns_ai "http://ns.adobe.com/AdobeIllustrator/10.0/">
	<!ENTITY ns_graphs "http://ns.adobe.com/Graphs/1.0/">
]>
<svg version="1.1" id="Layer_1" xmlns:x="&ns_extend;" xmlns:i="&ns_ai;" xmlns:graph="&ns_graphs;"
	 xmlns="http://www.w3.org/2000/svg" xmlns:xlink="http://www.w3.org/1999/xlink" xmlns:a="http://ns.adobe.com/AdobeSVGViewerExtensions/3.0/"
	 x="0px" y="0px" width="864px" height="864px" viewBox="0 0 864 864" enable-background="new 0 0 864 864" xml:space="preserve">
<path fill-rule="evenodd" clip-rule="evenodd" d="M275.38,542.326c8.417-5.257,17.231-9.979,25.184-15.862
	c33.52-24.799,61.258-54.948,77.341-93.712c11.202-27.001,19.651-55.202,28.351-83.171c10.768-34.62,18.546-70.207,34.062-103.253
	c9.947-21.186,21.417-41.338,39.248-57.106c1.806-1.597,3.734-3.056,6.518-3.647c-3.216,4.387-6.406,8.793-9.655,13.156
	c-7.529,10.113-12.18,21.342-13.596,33.93c-0.749,6.653-1.507,13.37,5.254,17.439c5.253,3.163,15.459,0.714,20.452-4.912
	c4.628-5.214,8.776-10.876,12.894-16.517c17.56-24.05,33.848-49.146,52.825-72.013c24.437-29.443,55.135-50.621,93.26-59.181
	c13.702-3.076,27.578-4.271,41.925-1.213c-55.2,6.781-94.058,35.297-116.143,86.236c20.107-23.368,45.209-39.12,74.57-47.761
	c12.837-3.778,26.232-5.656,39.373-8.396c0.209,0.769,0.419,1.536,0.626,2.304c-1.256,0.527-2.484,1.139-3.775,1.57
	c-32.371,10.832-58.775,29.652-77.669,58.363c-1.862,2.831-2.967,6.344-3.7,9.698c-1.931,8.845,4.319,15.431,12.821,12.179
	c12.057-4.611,24.263-9.809,34.878-17.008c22.914-15.541,42.202-35.157,57.96-58.056c2.203-3.202,3.951-6.719,6.665-9.675
	c-6.183,25.666-20.611,47.011-36.243,67.597c-15.787,20.792-33.009,40.285-56.105,55.079c10.132,0.745,37.83-11.332,61.446-26.647
	c18.546-12.028,36.464-24.916,51.204-41.653c-27.906,51.996-71.838,86.409-123.738,112.128
	c15.683,2.301,66.284-15.891,92.954-33.397c-2.051,9.251-18.995,28.117-39.064,41.427c-16.204,10.746-33.263,20.201-48.894,29.599
	c8.019,2.666,22.149-1.488,55.333-17.442c4.202,12.895,5.191,25.984,2.414,39.171c-5.774,27.414-13.773,54.072-27.558,78.72
	c-13.815,24.7-29.731,47.805-55.711,60.879c-10.336,5.201-22.414,8.14-33.998,9.437c-34.152,3.828-66.382-2.743-95.272-22.163
	c-11.299-7.595-22.112-15.908-33.147-23.895c0.523-0.82,1.048-1.642,1.572-2.464c1.524,0.911,3.092,1.756,4.566,2.741
	c30.975,20.69,65.28,30.819,102.3,29.38c25.669-1,46.328-14.263,63.676-32.643c14.014-14.848,23.142-31.977,23.648-52.917
	c0.279-11.444-2.311-22.234-8.017-32.102c-6.783-11.733-18.063-15.535-30.753-15.986c-32.704-1.162-57.413,14.422-78.233,37.874
	c-2.305,2.594-4.207,5.546-6.273,8.348c-0.09,0.121,0.036,0.4,0.157,1.363c7.106-3.771,13.887-7.633,20.89-11.034
	c19.101-9.277,38.481-17.908,59.985-19.808c10.479-0.925,19.371,2.377,24.89,11.994c1.184,2.062,1.607,4.56,2.573,7.428
	c-14.716-1.657-26.987,3.654-39.138,8.804c-16.385,6.943-32.486,14.551-48.668,22.898c12.559-3.293,25.266-6.116,37.638-10.005
	c13.807-4.341,27.313-9.468,42.214-6.665c7.61,1.431,10.36,5.279,8.509,12.791c-2.138,8.689-8.449,13.576-16.163,17.409
	c-0.982-6.469-4.958-4.983-9.135-3.926c-14.833,3.758-29.663,7.555-44.605,10.827c-5.083,1.114-10.496,0.725-15.762,1.549
	c20.111,7.089,40.384,8.465,61.16,1.323c-6.077,10.544-14.894,17.609-25.915,20.964c-9.935,3.024-20.394,4.354-30.646,6.293
	c-6.941,1.311-12.768-0.948-17.815-5.823c-5.278-5.097-10.765-9.979-16.16-14.956c-0.548,0.32-1.096,0.64-1.645,0.96
	c3.39,6.896,6.778,13.792,10.384,21.126c-25.09-3.938-46.78-14.446-65.639-30.796c-5.945-5.153-5.918-8.833-0.873-15.802
	c12.074-16.678,26.062-31.653,43.055-43.298c21.699-14.872,44.495-28.185,65.796-43.584c11.701-8.46,22.653-18.771,31.522-30.137
	c11.934-15.289,12.309-29.306,0.55-46.351c-9.546-13.835-26.703-18.238-44.301-12.552c-18.135,5.859-30.463,19.273-42.184,33.103
	c-25.24,29.784-43.586,64.118-63.511,97.428c-17.777,29.721-35.604,59.473-54.927,88.189c-18.219,27.075-41.23,49.953-69.928,66.182
	c-8.53,4.822-18.212,7.606-27.366,11.325C275.857,543.447,275.619,542.887,275.38,542.326z"/>
<path fill-rule="evenodd" clip-rule="evenodd" d="M242.687,554.197c11.621-15.721,21.088-30.232,25.459-47.551
	c6.234-24.701,2.843-47.523-14.578-66.49c-18.54-20.186-38.003-39.555-57.643-58.688c-24.929-24.284-46.218-50.989-58.695-83.845
	c-13.984-36.823-11.16-72.886,5.805-108.113c0.371-0.771,1.069-1.383,2.203-1.913c-5.334,19.048-9.1,38.351-6.197,57.947
	c2.911,19.649,11.68,36.729,27.367,51.209c-12.072-30.625-17.972-60.184-5.888-90.534c0.663-0.028,1.325-0.057,1.988-0.085
	c0,5.454,0.075,10.908-0.014,16.36c-0.365,22.632,8.136,42.27,21.299,59.93c3.217,4.316,8.964,7.582,14.215,9.362
	c8.896,3.016,13.891-1.074,13.704-10.817c-0.27-14.047-7.27-24.745-18.469-32.799c-2.944-2.117-6.232-3.753-8.862-6.381
	c15.765,2.663,27.702,11.271,36.809,24.086c12.535,17.64,21.418,36.926,25.799,58.202c0.209,1.016,0.877,1.937,1.332,2.902
	c0.82-0.1,1.64-0.201,2.461-0.301c-0.526-10.63-1.053-21.261-1.646-33.263c3.386,3.001,7.062,5.278,9.409,8.518
	c8.046,11.105,16.172,22.216,23.278,33.925c18.991,31.294,45.127,55.502,74.638,76.359c11.051,7.81,11.455,7.363,3.521,18.926
	c-2.024,2.949-4.555,5.552-7.26,8.803c-1.614-8.549-3.022-16.008-4.431-23.467c-0.827,0.041-1.652,0.082-2.479,0.123
	c-3.416,21.203-9.72,41.318-21.476,59.456c5.338-22.104,6.324-44.036-0.937-66.028c-2.503,28.778-8.464,56.434-24.29,81.201
	c1.396-9.672,2.873-19.332,4.169-29.018c3.106-23.21,1.031-46.255-5.685-68.406c-5.293-17.457-12.89-34.308-20.623-50.886
	c-3.057-6.554-9.252-11.643-14.925-16.945c-2.716,11.82-5.883,22.291-15.6,29.926c-2.141-8.603-3.732-16.708-6.252-24.514
	c-1.622-5.021-4.554-9.628-6.996-14.371c-6.138-11.921-19.245-13.961-27.254-10.417c-9.502,4.205-13.38,14.174-10.158,26.705
	c3.19,12.412,9.602,22.966,17.806,32.801c20.4,24.454,41.688,48.354,56.013,77.186c10.637,21.411,14.477,44.041,10.371,67.796
	c-0.191,1.11-0.402,2.216-0.915,5.03c36.53-19.51,63.645-47.2,87.289-79.235C365.733,461.49,297.874,526.095,242.687,554.197z"/>
<path fill-rule="evenodd" clip-rule="evenodd" d="M382.724,566.008c43.853-8.42,87.324-4.304,131.123,5.428
	c0.415,11.351,4.797,20.767,13.204,28.197c8.426,7.446,18.526,9.874,29.501,11.076c13.394,1.468,26.646,4.246,39.927,6.646
	c2.862,0.517,5.58,1.831,8.354,3.383c-24.928,0.737-47.143,8.561-68.504,24.479c9.657-2.642,17.445-5.271,25.443-6.818
	c8.071-1.561,16.351-2.049,24.903-1.752c-14.39,2.438-24.985,11.402-36.028,19.44c-7.708,5.61-14.835,12.066-22.78,17.293
	c-15.227,10.014-30.896,10.383-46.571,0.533c-12.767-8.023-25.943-7.702-39.979-1.537c20.292-21.562,21.394-46.105,12.716-72.042
	c7.756,4.713,12.881,18.291,17.302,47.743c6.706-16.071,4.07-29.898-2.411-43.449c-6.488-13.563-17.438-21.07-32.963-23.844
	c11.313,17.64,14.225,36.021,11.499,55.587c-0.764,5.489-2.847,7.541-8.746,6.53c-22.932-3.93-44.16-12.602-64.947-22.577
	c-4.748-2.278-9.263-5.041-13.885-7.581c0.213-0.54,0.426-1.079,0.64-1.621c4.086,1.284,8.242,2.382,12.246,3.882
	c13.936,5.226,28.071,8.468,43.031,5.242c12.166-2.623,17.649-12.397,13.356-24.169c-5.726-15.7-18.379-22.722-33.59-26.293
	c-4.227-0.994-8.597-1.376-12.901-2.037C382.684,567.166,382.705,566.587,382.724,566.008z"/>
<path fill-rule="evenodd" clip-rule="evenodd" d="M640.752,491.328c-12.183,21.354-32.55,32.198-54.212,41.843
	c19.363,3.078,67.601,1.456,105.79-22.187c-3.245,2.949-6.315,6.12-9.763,8.808c-14.754,11.503-32.239,17.458-49.51,23.677
	c-35.53,12.794-72.077,20.448-110.015,19.788c-9.466-0.164-18.907-1.667-28.483-3.331c19.278-6.105,37.911-12.973,52.979-27.08
	c-9.023,2.12-18.035,4.295-27.072,6.352c-24.403,5.554-48.969,5.19-73.625,2.017c-22.091-2.845-43.691-9.896-66.39-7.636
	c-6.64,0.661-13.329,0.832-20.042,0.753c17.826-7.46,36.026-10.712,55.468-7.426c17.418,2.945,35.049,4.699,52.622,6.649
	c28.363,3.148,53.643-5.698,77.538-20.138c3.528-2.133,8.079-3.429,12.21-3.569c24.561-0.837,48.752-3.536,71.811-12.633
	C633.813,495.733,637.197,493.313,640.752,491.328z"/>
<path fill-rule="evenodd" clip-rule="evenodd" d="M376.818,474.843c7.358-9.796,15.276-19.227,21.962-29.462
	c15.386-23.555,30.122-47.534,45.215-71.282c14.196-22.339,28.038-44.926,42.94-66.788c9.936-14.576,20.625-28.862,35.367-39.217
	c3.447-2.421,7.553-3.906,11.355-5.821c0.301,0.483,0.603,0.967,0.903,1.451c-9.945,15.28-19.891,30.561-29.837,45.842
	c0.329,0.327,0.657,0.655,0.985,0.982c1.469-1.66,2.975-3.289,4.401-4.983c11.092-13.183,21.926-26.596,33.441-39.398
	c2.516-2.796,7.653-5.158,11.219-4.725c10.876,1.323,12.963,7.474,5.538,15.461c-13.573,14.601-27.533,28.843-40.361,44.566
	c16.22-12.337,32.438-24.674,49.349-37.536c0.141,8.43-4.223,14.009-8.715,19.501c-14.206,17.366-32.253,30.196-50.924,42.075
	c-32.146,20.455-60.059,45.447-83.934,75.125c-12.685,15.767-25.969,31.052-39.007,46.534c-2.681,3.185-5.467,6.279-8.206,9.417
	C377.947,476.004,377.382,475.423,376.818,474.843z"/>
<path fill-rule="evenodd" clip-rule="evenodd" d="M416.08,454.661c24.369,25.438,53.398,41.717,85.123,52.396
	c-2.085,5.25-4.506,11.346-7.425,18.696c-6.504,0-15.389,1.248-23.79-0.236c-24.492-4.326-48.63-10.903-73.223-14.32
	c-15.889-2.209-32.333-0.416-48.501-0.416C373.241,495.967,395.649,477.09,416.08,454.661z"/>
<path fill-rule="evenodd" clip-rule="evenodd" d="M425.633,650.35c-3.043,4.111-6.817,8.816-10.072,13.856
	c-0.93,1.438-1.173,4.613-0.246,5.61c1.014,1.09,4.347,1.469,5.627,0.608c4.656-3.133,8.876-6.912,12.823-10.096
	c4.096,24.768-40.294,55.402-74.717,49.116c2.682-0.741,5.425-1.312,8.031-2.26c3.896-1.417,8.02-2.594,11.454-4.796
	c4.434-2.842,7.931-7.067,6.2-12.838c-1.994-6.651-7.659-9.244-13.993-9.565c-3.718-0.188-7.515,1.189-11.462,1.896
	c4.121-22.568,2.446-44.513-10.667-64.904C374.725,628.292,400.248,639.351,425.633,650.35z"/>
<path fill-rule="evenodd" clip-rule="evenodd" d="M333.006,587.284c5.861,6.654,11.744,13.334,17.627,20.014
	c-0.482,0.665-0.966,1.327-1.448,1.992c-2.264-0.648-4.575-1.169-6.785-1.966c-17.256-6.225-34.129-13.497-52.866-14.792
	c-17.553-1.213-35.379,7.356-43.025,21.762c-3.842,7.24-5.289,14.432,0.899,22.831c-2.599-0.68-4.1-0.732-5.217-1.415
	c-10.94-6.67-16.817-16.724-17.817-29.24c-2.081-26.046,12.126-47.338,38.539-53.127c23.526-5.157,44.929-14.228,66.335-24.699
	c11.406-5.579,24.814-7.26,37.473-9.977c4.327-0.929,9.126,0.347,13.785,1.234c-22.87,2.713-39.147,17.191-56.202,30.061
	c14.013-3.158,28.035-6.316,42.058-9.477c-0.069,0.339-0.139,0.678-0.208,1.016c-12.423,8.685-24.847,17.368-37.271,26.054
	c0.138,0.685,0.276,1.369,0.414,2.053c13.103,0,26.207,0,39.31,0c0.156,0.763,0.312,1.525,0.468,2.288
	c-5.9,2.953-11.68,6.191-17.737,8.778C345.38,583.218,339.141,585.104,333.006,587.284z M312.422,572.805
	c9.816-6.99,18.854-13.427,27.892-19.862c-12.658,2.309-23.884,9.26-38.581,6.513c14.023-10.272,26.962-19.752,39.901-29.229
	c-2.244-0.439-3.972,0.024-5.577,0.756c-15.424,7.024-30.618,14.611-46.319,20.943c-8.314,3.352-17.649,4.073-26.252,6.828
	c-10.911,3.494-19.719,9.729-21.849,22.087c-0.987,5.729,1.07,10.521,5.596,14.208c4.229,3.446,8.333,2.622,12.929,0.327
	c15.617-7.801,31.996-9.268,48.843-4.757c8.005,2.142,15.927,4.597,23.887,6.911c0.163-0.236,0.326-0.472,0.487-0.707
	c-5.079-4.019-10.159-8.036-15.849-12.537c9.236-2.241,17.399-4.224,25.562-6.204c-0.072-0.374-0.144-0.748-0.215-1.122
	C332.798,575.584,322.721,574.21,312.422,572.805z"/>
<path fill-rule="evenodd" clip-rule="evenodd" d="M283.879,416.856c-2.124-19.456-7.438-37.941-16.965-54.896
	c-3.482-6.198-4.22-11.347-0.201-17.108c23.838,13.125,39.816,122.667,21.604,154.839c-0.792-8.748-1.498-16.23-2.14-23.719
	c-1.829-21.311-7.678-41.595-16.354-61.013c-6.243-13.973-12.958-27.769-20.197-41.25c-3.679-6.853,2.242-8.857,4.892-14.085
	C268.242,377.394,277.317,396.416,283.879,416.856z"/>
<path fill-rule="evenodd" clip-rule="evenodd" d="M344.674,706.774c7.37,3.82,13.234,6.891,19.134,9.891
	c1.016,0.517,2.324,0.52,3.258,1.128c5.011,3.255,8.267,19.063,5.754,27.493c-2.209,7.406-9.704,12.318-19.879,12.133
	c8.2-4.497,13.99-9.623,11.057-19.079c-1.746-5.629-10.472-13.888-14.495-13.963c-12.268-0.229-12.772,0.177-19.649,17.264
	c7.449-0.377,13.967-0.708,19.898-1.009c-5.076,7.745-6.655,8.406-26.733,10.157c3.505,4.953,6.593,9.314,9.619,13.59
	c-12.972,1.789-27.196-13.45-22.95-25.845c9.059-26.444,26.362-44.855,54.227-51.944c0.899-0.229,1.97-0.782,2.703-0.505
	c3.461,1.312,6.834,2.861,10.238,4.325c-2.105,3.294-3.502,8.344-6.457,9.539C362.951,702.962,354.799,704.237,344.674,706.774z"/>
<path fill-rule="evenodd" clip-rule="evenodd" d="M523.72,571.977c27.524-0.307,55.067-1.58,81.522-10.749
	c0.347,0.536,0.694,1.071,1.041,1.607c-4.843,4.257-9.687,8.513-15.014,13.193c5.485,0.988,10.751,1.936,16.016,2.883
	c0.205,0.704,0.41,1.407,0.615,2.111c-5.859,2.568-11.72,5.136-18.669,8.18c5.962,1.871,11.151,3.501,16.34,5.13
	c0.224,0.584,0.447,1.169,0.671,1.752c-6.619,2.127-13.106,4.976-19.888,6.234c-14.845,2.756-29.687,2.526-43.929-3.408
	C530.578,593.973,523.65,584.254,523.72,571.977z"/>
<path fill-rule="evenodd" clip-rule="evenodd" d="M430.384,747.194c0-12.027,0-24.053,0-35.852
	c-6.291,8.503-9.716,18.508-9.208,30.741c-4.725-6.587-6.328-16.709-4.303-22.995c5.136-15.95,16.1-28.134,26.812-40.306
	c2.355-2.676,7.553-2.853,12.322-3.211c-8.604,22.737-3.323,47.553-13.152,69.244c-0.688-0.086-1.376-0.173-2.063-0.26
	c0.738-9.838,1.477-19.675,2.215-29.513c-1.012-0.189-2.022-0.381-3.034-0.572c-2.731,10.887-5.463,21.772-8.195,32.66
	C431.313,747.152,430.848,747.174,430.384,747.194z"/>
<path fill-rule="evenodd" clip-rule="evenodd" d="M514.092,547.416c-16.951,7.18-34.596,9.842-52.896,8.905
	c-18.584-0.949-37.231-2.687-55.767-1.96c-18.164,0.711-36.223,4.092-55.711,6.469c8.333-3.732,15.704-7.872,23.591-10.408
	c23.058-7.411,46.746-7.131,70.476-4.152C467.169,549.204,490.55,550.359,514.092,547.416z"/>
<path fill-rule="evenodd" clip-rule="evenodd" d="M262.586,418.462c-7.586-10.836-14.993-21.803-22.809-32.47
	c-7.839-10.697-16.1-21.084-24.151-31.626c-6.4-8.379-12.472-16.955-12.429-28.134c0.008-2.324,0.882-4.645,1.357-6.967
	c0.63-0.114,1.261-0.227,1.891-0.34c19.411,32.712,38.823,65.425,58.234,98.137C263.981,417.528,263.283,417.995,262.586,418.462z"
	/>
<path fill-rule="evenodd" clip-rule="evenodd" d="M420.124,604.861c-7.139,8.763-15.029,10.486-23.705,9.425
	c-17.758-2.173-32.261-11.986-47.306-20.851C372.224,598.204,396.381,596.271,420.124,604.861z"/>
<path fill-rule="evenodd" clip-rule="evenodd" d="M419.067,596.665c-21.232-8.685-43.892-6.581-66.154-9.821
	c8.107-3.114,16.004-7.072,24.367-9.159c14.858-3.708,28.077,0.693,39.245,10.988c1.819,1.676,2.76,4.305,4.107,6.493
	C420.11,595.666,419.588,596.165,419.067,596.665z"/>
<path fill-rule="evenodd" clip-rule="evenodd" d="M239.757,364.58c-9.055-16.551-18.108-33.103-27.43-50.144
	c6.488-1.536,9.964,1.777,13.015,5.569c10.293,12.791,13.568,28.136,16.042,43.747C240.842,364.028,240.3,364.304,239.757,364.58z"
	/>
<path fill-rule="evenodd" clip-rule="evenodd" d="M282.668,560.028c-6.575,4.545-13.15,9.09-20.655,14.278
	c2.763,0.888,4.143,1.332,6.747,2.168c-3.103,2.136-5.335,4.781-7.874,5.119c-2.726,0.361-6.034-0.992-8.463-2.562
	c-0.816-0.527-0.345-4.407,0.674-6.049c1.129-1.817,3.391-3.208,5.453-4.121c7.754-3.437,15.627-6.604,23.457-9.871
	C282.228,559.336,282.448,559.683,282.668,560.028z"/>
</svg>
